<?xml version="1.0" encoding="utf-8"?>
<!-- Generator: Adobe Illustrator 24.1.1, SVG Export Plug-In . SVG Version: 6.00 Build 0)  -->
<svg version="1.1" id="Layer_1" xmlns="http://www.w3.org/2000/svg" xmlns:xlink="http://www.w3.org/1999/xlink" x="0px" y="0px"
	 viewBox="0 0 512 512" style="enable-background:new 0 0 512 512;" xml:space="preserve">
<g>
	<path d="M139.6,23.3v23.3h232.7c25.8,0,48.9,10.4,65.8,27.3c16.9,16.9,27.3,40,27.3,65.8v232.7c0,25.8-10.4,48.9-27.3,65.8
		c-16.9,16.9-40,27.3-65.8,27.3H139.6c-25.8,0-48.9-10.4-65.8-27.3c-16.9-16.9-27.3-40-27.3-65.8V139.6c0-25.8,10.4-48.9,27.3-65.8
		c16.9-16.9,40-27.3,65.8-27.3V23.3V0C62.5,0,0,62.5,0,139.6v232.7C0,449.5,62.5,512,139.6,512h232.7c77.1,0,139.6-62.5,139.6-139.6
		V139.6C512,62.5,449.5,0,372.4,0H139.6V23.3z"/>
	<path d="M349.1,241.3l-23,3.4c0.5,3.5,0.8,7,0.8,10.4c0,33.9-24.9,63.8-59.6,68.9l0,0c-3.5,0.5-6.9,0.8-10.4,0.8
		c-33.9,0-63.9-24.9-69-59.6l0,0c-0.5-3.5-0.8-6.9-0.8-10.3c0-33.9,24.9-63.9,59.6-69h0c3.4-0.5,6.8-0.8,10.2-0.8
		c3.4,0,6.8,0.3,10.2,0.8l0,0c30.4,4.5,54.3,28.4,58.8,58.8l0,0L349.1,241.3l23-3.4c-7.5-50.7-47.3-90.5-98-98l0,0
		c-5.7-0.8-11.4-1.3-17.1-1.3c-5.7,0-11.4,0.4-17.1,1.3h0c-57.8,8.6-99.3,58.2-99.3,115c0,5.7,0.4,11.4,1.3,17.2l0,0
		c8.6,57.8,58.2,99.3,115,99.3c5.7,0,11.4-0.4,17.2-1.3l0,0c57.8-8.6,99.3-58.2,99.3-115c0-5.7-0.4-11.4-1.3-17.2l0,0L349.1,241.3z"
		/>
	<path d="M384,151.3h0.2c12.9,0,23.3-10.4,23.3-23.3c0-12.9-10.4-23.3-23.3-23.3H384c-12.9,0-23.3,10.4-23.3,23.3
		C360.7,140.9,371.1,151.3,384,151.3"/>
</g>
</svg>
